# xmcd
#
# Track frame offsets:
#	150
#	10172
#	19147
#	29555
#	40017
#	50832
#	60772
#	73857
#	85590
#	95312
#	107782
#	119372
#	130472
#	143015
#	153882
#	166155
#	178860
#	193580
#
# Disc length: 2712 seconds
#
# Revision: 0
# Processed by: cddbd v1.5.2PL0 Copyright (c) Steve Scherf et al.
# Submitted via: audiograbber 1.80.04
#
DISCID=eb0a9612
DTITLE=George Jones - All American Country
DYEAR=1996
DGENRE=Country
TTITLE0=George Jones - I Walk The Line
TTITLE1=George Jones - Singin' The Blues
TTITLE2=George Jones - Hey Good Lookin'
TTITLE3=George Jones - Half As Much
TTITLE4=George Jones - I Can't Help It If I'm Still In Love With You
TTITLE5=George Jones - Settin' The Woods on Fire
TTITLE6=George Jones - I Love You Because
TTITLE7=George Jones - Heartaches By The Number
TTITLE8=George Jones - If You've Got The Money ( I've Got The Time)
TTITLE9=George Jones - There'll Be No Teardrops Tonight
TTITLE10=George Jones - The Window Up Above
TTITLE11=George Jones - Tall Tall Trees
TTITLE12=George Jones - White Lightning
TTITLE13=George Jones Tender Years
TTITLE14=George Jones - Oh Lonesome Me
TTITLE15=Aching Breaking Heart
TTITLE16=George Jones - Cold Cold Heart
TTITLE17=George Jones - Jambalaya ( On The Bayou
EXTD=Compilation
EXTT0=Johnny Cash
EXTT1=Endsly
EXTT2=Hank Williams
EXTT3=Curly Williams
EXTT4=Hank Williams
EXTT5=Fred Rose
EXTT6=Leon Payne
EXTT7=Howard Harlan
EXTT8=Lefty Frizzell
EXTT9=Hank Williams
EXTT10=George Jones
EXTT11=George Jones and R Miller
EXTT12=J P Richardson
EXTT13=Darrell Edwards
EXTT14=Don Gibson
EXTT15=Rick Hall
EXTT16=Hank Williams
EXTT17=Hank Williams
PLAYORDER=
